<?xml version="1.0" standalone="no"?>
<!DOCTYPE svg PUBLIC "-//W3C//DTD SVG 20010904//EN"
 "http://www.w3.org/TR/2001/REC-SVG-20010904/DTD/svg10.dtd">
<svg version="1.0" xmlns="http://www.w3.org/2000/svg"
 width="512.000000pt" height="512.000000pt" viewBox="0 0 512.000000 512.000000"
 preserveAspectRatio="xMidYMid meet">
<metadata>
Created by potrace 1.16, written by Peter Selinger 2001-2019
</metadata>
<g transform="translate(0.000000,512.000000) scale(0.100000,-0.100000)"
fill="#000000" stroke="none">
<path d="M2097 3260 c7 -10 8 -21 3 -30 -7 -11 -12 -9 -29 11 -17 20 -20 21
-21 6 0 -12 4 -16 13 -11 9 5 9 4 0 -6 -10 -11 -16 -11 -30 2 -29 24 -53 30
-46 11 5 -13 2 -15 -13 -9 -10 4 -23 9 -29 10 -5 1 -15 5 -22 9 -6 4 -15 2
-19 -4 -4 -7 -3 -9 4 -5 6 3 13 2 17 -4 13 -21 -53 -14 -79 8 -20 19 -23 18
-48 -5 -10 -9 -18 -12 -18 -7 0 17 -71 14 -77 -3 -5 -12 -9 -10 -19 8 l-13 24
-1 -25 c0 -19 -2 -22 -9 -10 -6 8 -7 18 -5 22 3 4 -3 5 -12 1 -11 -4 -13 -8
-6 -11 7 -2 10 -8 7 -13 -4 -5 -12 -3 -19 4 -8 6 -12 15 -10 18 2 3 -8 4 -21
1 -14 -2 -22 -9 -18 -15 4 -6 0 -8 -10 -4 -10 3 -17 2 -17 -4 0 -6 -5 -7 -10
-4 -8 5 -7 12 2 23 10 12 7 12 -15 -3 -24 -15 -27 -16 -21 -1 4 11 0 16 -14
16 -12 0 -23 -9 -27 -20 -7 -22 -25 -26 -42 -9 -7 7 -20 9 -30 5 -21 -9 -23
-8 -22 2 1 4 6 6 12 4 7 -2 9 0 5 4 -4 4 -24 7 -43 8 -29 1 -33 -1 -19 -11 12
-9 7 -10 -27 -7 -24 2 -46 10 -51 16 -6 10 -8 9 -8 -3 0 -9 -7 -22 -15 -29
-13 -10 -15 -9 -15 9 0 11 -5 21 -11 21 -6 0 -8 -7 -5 -16 6 -15 4 -15 -19 0
-14 9 -25 13 -25 9 0 -5 -4 -2 -9 6 -7 11 -13 10 -32 -8 l-23 -21 -13 22 -14
23 7 -24 c4 -16 3 -21 -5 -17 -6 4 -11 14 -11 22 0 8 -4 14 -10 14 -5 0 -7 -7
-4 -15 4 -8 1 -15 -5 -15 -6 0 -11 5 -11 11 0 7 -10 9 -25 5 -16 -4 -25 -2
-25 5 0 7 -3 9 -6 6 -4 -4 -1 -13 6 -22 9 -11 9 -15 1 -15 -6 0 -14 7 -18 16
-5 13 -7 13 -14 2 -7 -10 -9 -9 -9 5 0 10 -5 15 -10 12 -6 -4 -7 -11 -4 -17 4
-5 -5 -2 -20 7 -25 17 -26 17 -26 -4 0 -27 -20 -28 -27 -1 -6 21 -25 29 -20 8
1 -8 -10 -13 -28 -13 -17 -1 -37 -5 -44 -9 -11 -7 -11 -4 -1 15 10 20 10 22
-1 12 -7 -7 -21 -13 -31 -13 -10 0 -18 -4 -18 -10 0 -5 -5 -10 -11 -10 -5 0
-7 5 -4 10 3 6 1 10 -4 10 -19 0 -26 2 -46 13 -17 9 -18 8 -7 -5 11 -14 9 -16
-12 -14 -20 1 -22 4 -13 16 9 11 7 11 -8 -1 -11 -9 -25 -14 -32 -12 -6 2 -14
-1 -18 -6 -3 -6 -11 -11 -18 -11 -8 0 -8 3 1 12 15 15 15 28 1 28 -5 0 -7 -5
-3 -11 4 -8 -1 -9 -16 -4 -19 6 -22 4 -16 -10 5 -14 3 -15 -6 -8 -17 14 -88
22 -81 9 4 -5 -1 -7 -10 -3 -10 4 -17 1 -17 -6 0 -8 -4 -6 -10 3 -7 11 -10 11
-10 2 0 -8 -5 -10 -12 -5 -7 4 -19 8 -27 10 -8 1 -18 8 -23 15 -7 10 -8 8 -4
-4 3 -12 0 -18 -10 -18 -10 0 -14 6 -10 15 3 9 0 15 -9 15 -8 0 -14 -3 -14 -7
4 -22 -2 -32 -15 -27 -8 3 -12 13 -9 22 4 14 3 14 -5 3 -6 -8 -24 -14 -41 -13
-17 0 -29 -4 -26 -9 9 -14 -8 -11 -33 7 -15 10 -22 11 -22 3 0 -8 -4 -8 -12
-2 -30 23 -45 22 -42 -3 1 -13 -2 -22 -7 -18 -5 3 -7 10 -4 15 4 5 1 9 -5 9
-6 0 -8 5 -4 13 5 8 2 8 -9 -2 -16 -13 -17 -124 -17 -1632 l0 -1619 1085 0
1085 0 0 910 0 910 -330 0 -330 0 0 370 0 370 330 0 330 0 0 334 c0 299 -2
335 -16 340 -9 4 -23 1 -30 -5 -12 -9 -13 -9 -9 3 3 8 -2 21 -12 29 -16 12
-17 12 -6 -1z"/>
<path d="M3390 3252 c0 -20 -24 -22 -64 -6 -15 6 -18 4 -12 -7 4 -8 1 -7 -5 2
-11 14 -14 14 -31 -3 -15 -15 -23 -17 -33 -8 -10 8 -14 8 -18 -2 -4 -10 -6
-10 -6 1 -1 11 -4 11 -18 0 -14 -12 -16 -12 -9 0 6 9 5 12 -5 9 -8 -3 -22 -1
-33 4 -12 7 -22 6 -30 -3 -8 -9 -8 -10 4 -4 8 5 11 4 7 0 -11 -13 -38 -15 -30
-2 4 6 0 8 -10 4 -10 -3 -17 -2 -17 3 0 6 -4 10 -10 10 -5 0 -9 -5 -7 -11 1
-6 -4 -14 -12 -17 -10 -3 -12 0 -8 11 9 23 -8 30 -27 12 -40 -40 -49 -109 -54
-402 l-4 -283 361 0 361 0 -7 -42 c-4 -24 -30 -189 -58 -368 l-50 -325 -303
-3 -302 -2 0 -910 0 -910 1080 0 1080 0 0 1610 c0 1281 -3 1610 -12 1610 -9 0
-8 4 2 10 12 8 11 10 -7 10 -12 0 -25 5 -28 10 -4 7 -11 7 -18 2 -7 -5 -20 -8
-30 -7 -9 2 -15 0 -12 -5 6 -9 24 -8 41 3 7 4 14 1 17 -6 3 -9 -2 -13 -16 -12
-12 1 -25 -3 -29 -9 -5 -8 -8 -7 -8 2 0 6 -7 12 -15 12 -9 0 -12 6 -9 15 4 8
1 15 -5 15 -6 0 -11 -6 -11 -12 0 -9 -4 -8 -10 2 -7 11 -10 12 -10 2 0 -9 -7
-11 -20 -7 -11 4 -20 2 -20 -4 0 -6 5 -11 12 -11 6 0 9 -2 6 -5 -8 -8 -39 6
-33 15 3 4 -7 10 -21 13 -16 3 -28 -1 -31 -9 -3 -8 -9 -11 -14 -8 -5 3 -7 8
-5 12 2 4 -7 7 -20 7 -19 0 -24 -4 -20 -18 3 -11 0 -15 -7 -10 -22 14 -49 14
-41 1 6 -10 4 -11 -7 0 -16 14 -49 16 -49 2 0 -5 -5 -10 -11 -10 -8 0 -8 4 0
14 8 9 8 16 2 20 -5 4 -13 2 -16 -4 -5 -8 -11 -7 -21 1 -13 11 -19 2 -15 -23
0 -5 -4 -8 -10 -8 -6 0 -9 9 -6 20 4 16 0 19 -20 18 -21 -2 -22 -4 -8 -14 14
-10 13 -12 -5 -17 -13 -3 -20 0 -20 8 0 8 -5 17 -12 21 -7 4 -8 3 -4 -4 4 -7
1 -12 -9 -12 -10 0 -13 -5 -9 -12 5 -8 1 -7 -10 2 -21 17 -46 22 -46 9 0 -14
-27 -11 -43 6 -13 13 -17 12 -31 -8 -8 -12 -13 -15 -10 -6 3 9 -1 19 -10 22
-11 4 -13 1 -9 -11 5 -13 3 -15 -7 -5 -10 9 -16 7 -29 -8 -16 -20 -16 -20 -33
1 -10 11 -14 20 -8 20 5 0 13 -7 18 -16 6 -10 12 -12 16 -6 9 14 -21 35 -40
28 -9 -4 -14 -13 -10 -21 3 -8 1 -15 -4 -15 -6 0 -10 7 -10 15 0 9 -6 12 -17
8 -11 -4 -14 -3 -9 5 5 8 2 10 -8 6 -9 -3 -14 -10 -11 -14 3 -4 -2 -10 -10
-14 -11 -4 -15 2 -16 22 0 26 -1 26 -9 5 -7 -16 -15 -21 -33 -17 -16 2 -27 -1
-31 -11 -4 -13 -10 -14 -26 -5 -11 6 -20 16 -20 22 0 6 10 3 21 -8 21 -19 21
-19 18 0 -5 22 -45 32 -52 12 -6 -14 -34 -15 -56 -1 -9 5 -19 2 -29 -11 -14
-18 -14 -18 -9 4 3 12 1 22 -4 22 -5 0 -9 -5 -9 -10 0 -12 -22 -9 -32 5 -4 6
-8 2 -8 -8 0 -10 -5 -15 -10 -12 -6 4 -7 12 -3 18 4 7 0 6 -10 -2 -11 -9 -17
-10 -17 -2 0 6 -10 10 -22 10 -17 -1 -19 -2 -5 -6 19 -5 23 -18 8 -28 -5 -3
-13 0 -17 6 -4 8 -9 7 -15 -2 -7 -11 -9 -10 -9 4 0 9 -4 17 -9 17 -5 0 -16 2
-23 5 -8 3 -23 -3 -35 -14 -18 -18 -23 -18 -33 -5 -10 11 -16 12 -26 3 -11 -9
-14 -8 -14 2 0 9 -3 10 -8 3 -10 -16 -44 -14 -38 3 7 17 -2 17 -19 -1 -8 -7
-11 -16 -8 -20 4 -3 -1 -6 -10 -6 -9 0 -19 5 -22 11 -4 6 -14 8 -22 5 -8 -3
-12 -2 -9 3 3 5 -3 11 -15 14 -16 4 -18 3 -9 -8 8 -10 8 -15 -1 -21 -8 -4 -9
-3 -5 4 4 7 2 13 -3 13 -21 3 -26 4 -38 12 -7 4 -15 1 -21 -8 -5 -10 -15 -13
-25 -9 -9 3 -15 10 -12 14 3 5 1 11 -5 15 -5 3 -10 -2 -10 -13z"/>
</g>
</svg>
